# xmcd CD database file
#
# Track frame offsets:
#	150
#	11110
#	23363
#	35870
#	48262
#	60947
#	74877
#	86306
#	99801
#	112439
#	125129
#	139391
#	151647
#	164497
#	177002
#	189759
#	200534
#	210977
#	223012
#	233590
#	244618
#	255848
#	267363
#	278794
#
# Disc length: 3868 seconds
#
# Revision: 0
# Processed by: cddbd v1.5.1PL0 Copyright (c) Steve Scherf et al.
# Submitted via: CDex 1.50beta10
#
DISCID=4a0f1a18
DTITLE=Slim Whitman - Rose Marie
DYEAR=2005
DGENRE=Country
TTITLE0=Keep It A Secret
TTITLE1=My Heart is Broken In Three
TTITLE2=By The Waters of Minnetonka
TTITLE3=An Amateur In Love
TTITLE4=Restless Years
TTITLE5=Song of the old Water Wheel
TTITLE6=How Can I Tell You
TTITLE7=All That I'm Asking Is Sympathy
TTITLE8=North Wind]
TTITLE9=Darlin' Don't Cry
TTITLE10=Danny Boy
TTITLE11=There's A Rainbow In Every Teardrop
TTITLE12=Stairway To Heaven
TTITLE13=Lord, Help Me Be As Thou
TTITLE14=Secret Love
TTITLE15=Why
TTITLE16=Rose Marie
TTITLE17=We Stood At The Alter
TTITLE18=Beautiful Dreamer
TTITLE19=Ride Away
TTITLE20=Singing Hills
TTITLE21=I Hate To See You Cry
TTITLE22=Cattle Call
TTITLE23=When I Grow Too Old To Dream
EXTD=YEAR: 2005
EXTT0=
EXTT1=
EXTT2=
EXTT3=
EXTT4=
EXTT5=
EXTT6=
EXTT7=
EXTT8=
EXTT9=
EXTT10=
EXTT11=
EXTT12=
EXTT13=
EXTT14=
EXTT15=
EXTT16=
EXTT17=
EXTT18=
EXTT19=
EXTT20=
EXTT21=
EXTT22=
EXTT23=
PLAYORDER=
